<svg width="649" height="649" viewBox="0 0 649 649" fill="none" xmlns="http://www.w3.org/2000/svg">
<path d="M446.188 0H202.812C90.8194 0 0 90.8194 0 202.812V446.188C0 558.181 90.8194 649 202.812 649H446.188C558.181 649 649 558.181 649 446.188V202.812C649 90.8194 558.181 0 446.188 0ZM588.156 446.188C588.156 524.473 524.473 588.156 446.188 588.156H202.812C124.527 588.156 60.8438 524.473 60.8438 446.188V202.812C60.8438 124.527 124.527 60.8438 202.812 60.8438H446.188C524.473 60.8438 588.156 124.527 588.156 202.812V446.188Z" fill="url(#paint0_linear)" fill-opacity="0.85"/>
<path d="M324.5 162.25C234.897 162.25 162.25 234.897 162.25 324.5C162.25 414.103 234.897 486.75 324.5 486.75C414.103 486.75 486.75 414.103 486.75 324.5C486.75 234.897 414.103 162.25 324.5 162.25ZM324.5 425.906C268.605 425.906 223.094 380.395 223.094 324.5C223.094 268.564 268.605 223.094 324.5 223.094C380.395 223.094 425.906 268.564 425.906 324.5C425.906 380.395 380.395 425.906 324.5 425.906Z" fill="url(#paint1_linear)" fill-opacity="0.85"/>
<path d="M498.919 171.701C510.859 171.701 520.539 162.022 520.539 150.081C520.539 138.141 510.859 128.461 498.919 128.461C486.978 128.461 477.299 138.141 477.299 150.081C477.299 162.022 486.978 171.701 498.919 171.701Z" fill="url(#paint2_linear)" fill-opacity="0.85"/>
<defs>
<linearGradient id="paint0_linear" x1="324.5" y1="0" x2="324.5" y2="649" gradientUnits="userSpaceOnUse">
<stop stop-color="#F6C6C4"/>
<stop offset="0.674033" stop-color="#E7D7E0"/>
<stop offset="1" stop-color="#E2DDEA"/>
</linearGradient>
<linearGradient id="paint1_linear" x1="324.5" y1="162.25" x2="324.5" y2="486.75" gradientUnits="userSpaceOnUse">
<stop stop-color="#F6C6C4"/>
<stop offset="0.674033" stop-color="#E7D7E0"/>
<stop offset="1" stop-color="#E2DDEA"/>
</linearGradient>
<linearGradient id="paint2_linear" x1="498.919" y1="128.461" x2="498.919" y2="171.701" gradientUnits="userSpaceOnUse">
<stop stop-color="#F6C6C4"/>
<stop offset="0.674033" stop-color="#E7D7E0"/>
<stop offset="1" stop-color="#E2DDEA"/>
</linearGradient>
</defs>
</svg>
